<svg width="506" height="72" viewBox="0 0 506 72" fill="none" xmlns="http://www.w3.org/2000/svg">
<path d="M11.4531 71.4121C6.60828 63.4279 0 51.1028 0 35.7158C0 20.3288 6.60828 7.98429 11.4531 9.15527e-05H14.5537C8.93377 9.43772 3.1588 21.2784 3.1588 35.7158C3.1588 50.1532 8.91439 61.9939 14.5343 71.4315H11.4337L11.4531 71.4121Z" fill="black"/>
<g clip-path="url(#clip0_4031_44722)">
<path d="M372.794 42.0753C372.794 47.7843 377.423 52.3977 383.116 52.3977H432.29C437.999 52.3977 442.613 47.7688 442.613 42.0753V8.7165C442.613 8.31533 442.937 7.97588 443.353 7.97588H456.931C457.333 7.97588 457.672 8.2999 457.672 8.7165V41.7204C457.672 53.9407 447.766 63.8465 435.546 63.8465H379.876C367.656 63.8465 357.75 53.9407 357.75 41.7204V8.7165C357.75 8.31533 358.074 7.97588 358.491 7.97588H372.069C372.47 7.97588 372.809 8.2999 372.809 8.7165V42.0753H372.794Z" fill="black"/>
<path d="M39.7512 7.97585H144.904C145.66 7.97585 146.046 8.25358 146.046 8.80904V18.0585C146.046 18.614 145.66 18.8917 144.904 18.8917H99.9575V63.075C99.9575 63.6304 99.5717 63.9082 98.8157 63.9082H85.8548C85.0988 63.9082 84.713 63.6304 84.713 63.075V18.8917H39.7512C38.9951 18.8917 38.6094 18.614 38.6094 18.0585V8.80904C38.6094 8.25358 38.9951 7.97585 39.7512 7.97585Z" fill="black"/>
<path d="M356.498 62.9052L314.607 8.53131C314.313 8.14557 313.85 7.97585 313.233 7.97585H295.227C294.61 7.97585 294.162 8.14557 293.854 8.53131L251.978 62.9052C251.515 63.4607 251.901 63.9082 252.811 63.9082H267.454C268.071 63.9082 268.518 63.7384 268.827 63.3527L274.706 55.6842L304.222 17.2027L333.739 55.6842L339.618 63.3527C339.926 63.7384 340.374 63.9082 340.991 63.9082H355.634C356.544 63.9082 356.93 63.4607 356.467 62.9052H356.498Z" fill="black"/>
<path d="M250.442 24.7633C250.442 15.4746 240.05 7.97585 227.383 7.97585H155.111C154.354 7.97585 153.969 8.25358 153.969 8.80904V63.075C153.969 63.6304 154.354 63.9082 155.111 63.9082H168.087C168.843 63.9082 169.229 63.6304 169.229 63.075V41.5352V18.2057H227.383C231.888 18.2057 235.005 21.6156 235.005 24.7478C235.005 27.88 231.873 31.29 227.383 31.29H198.814C198.192 31.29 197.873 32.037 198.304 32.4864L227.907 63.3373C228.216 63.723 228.663 63.8927 229.281 63.8927H243.923C244.834 63.8927 245.219 63.4453 244.757 62.8898L224.127 41.5198H227.367C240.035 41.5198 250.426 34.021 250.426 24.7324L250.442 24.7633Z" fill="black"/>
</g>
<path d="M491.599 71.4315C497.687 63.4473 505.991 51.1222 505.991 35.7158C505.991 20.3094 497.687 7.98429 491.599 9.15527e-05H487.703C494.765 9.43772 501.998 21.2784 501.998 35.7158C501.998 50.1532 494.765 61.9939 487.703 71.4315H491.599Z" fill="black"/>
<defs>
<clipPath id="clip0_4031_44722">
<rect width="419.18" height="55.9135" fill="white" transform="translate(38.5391 7.9305)"/>
</clipPath>
</defs>
</svg>
